<svg xmlns="http://www.w3.org/2000/svg" width="1200" height="630" viewBox="0 0 1200 630"><title>OpenLIMS · Laboratory collaboration and management</title><rect width="1200" height="630" fill="#0F172A"/><g stroke="#24334B" stroke-width="1"><path d="M0 0v630"/><path d="M72 0v630"/><path d="M144 0v630"/><path d="M216 0v630"/><path d="M288 0v630"/><path d="M360 0v630"/><path d="M432 0v630"/><path d="M504 0v630"/><path d="M576 0v630"/><path d="M648 0v630"/><path d="M720 0v630"/><path d="M792 0v630"/><path d="M864 0v630"/><path d="M936 0v630"/><path d="M1008 0v630"/><path d="M1080 0v630"/><path d="M1152 0v630"/><path d="M1224 0v630"/><path d="M1296 0v630"/><path d="M0 0h1200"/><path d="M0 72h1200"/><path d="M0 144h1200"/><path d="M0 216h1200"/><path d="M0 288h1200"/><path d="M0 360h1200"/><path d="M0 432h1200"/><path d="M0 504h1200"/><path d="M0 576h1200"/><path d="M0 648h1200"/></g><rect x="72" y="72" width="52" height="6" rx="3" fill="#60A5FA"/><text x="72" y="128" font-family="Arial, Helvetica, sans-serif" font-size="19" letter-spacing="4" fill="#94A3B8">OPEN LABORATORY PLATFORM</text><g transform="translate(65 214) scale(1.55)" fill="none" stroke="#60A5FA" stroke-width="12" stroke-linecap="round" stroke-linejoin="round"><path d="M86 30a42 42 0 1 0 0 60"/><path d="M52 37v46h42"/><circle cx="95" cy="20" r="7" fill="#60A5FA" stroke="none"/><circle cx="95" cy="100" r="7" fill="#60A5FA" stroke="none"/></g><text x="268" y="353" font-family="Arial, Helvetica, sans-serif" font-size="144" font-weight="700" letter-spacing="-6" fill="#F8FAFC">OpenLIMS</text><path d="M72 444h1056" stroke="#334155"/><text x="72" y="508" font-family="Arial, Helvetica, sans-serif" font-size="28" fill="#CBD5E1">Research. Collaboration. Management.</text><text x="1128" y="558" text-anchor="end" font-family="Arial, Helvetica, sans-serif" font-size="16" letter-spacing="3" fill="#60A5FA">OPENLIMS</text></svg>